<svg width="41" height="31" version="1.1" xmlns="http://www.w3.org/2000/svg" desc="Created with imagetracer.js version 1.2.6" ><path fill="rgb(0,0,0)" stroke="rgb(0,0,0)" stroke-width="1" opacity="0" d="M 0 0 L 4 1.5 L 5 3.5 L 0.5 5 L 0 0 Z " /><path fill="rgb(0,0,0)" stroke="rgb(0,0,0)" stroke-width="1" opacity="0" d="M 16 0 L 41 0 L 41 31 L 11.5 31 L 9.5 30 Q 8.3 32.3 7 29.5 L 10.5 29 L 12 29.5 L 13.5 24 L 14 26 L 20.5 26 L 27.5 20 L 30.5 20 L 34.5 21 Q 37.5 19.5 34.5 18 L 33 18.5 L 33 17 L 29 17 L 29 14.5 L 14 3.5 Q 13.3 0.9 16 2 L 16 0 Z M 31 11 L 29 13 Q 30 15 32 13 Q 37 15 36 12 L 35 12 L 31 11 Z M 32 14 Q 31 16 34 15 Q 35 17 36 15 L 32 14 Z " /><path fill="rgb(0,0,0)" stroke="rgb(0,0,0)" stroke-width="1" opacity="0" d="M 18.5 16 Q 21.3 17.3 19 18.5 Q 18.2 21.5 22 20 L 22 22 L 16.5 21 L 15 21.5 L 18.5 16 Z " /><path fill="rgb(0,0,0)" stroke="rgb(0,0,0)" stroke-width="1" opacity="1" d="M 4 0 L 16 0.5 L 14 1 L 13 3.5 L 24.5 12 L 28 13 L 29 16.5 L 22.5 25 L 16.5 26 L 14.5 23 L 16 23.5 Q 15.1 20.5 19.5 22 Q 21.3 24.8 23 20.5 L 24 16 L 17.5 16 L 16 17.5 Q 16.5 22 13 22.5 L 12 28 L 7.5 27 L 7 29 L 3.5 30 L 1 29 L 1 26 Q 5.1 27.3 4 24 L 1 23.5 L 4 23 L 4 21 L 0 21 L 0 19.5 L 2 16.5 L 0 14.5 L 0 5 L 5 4 L 4 0 Z " /><path fill="rgb(0,0,0)" stroke="rgb(0,0,0)" stroke-width="1" opacity="0.7137254901960784" d="M 1.5 25 L 1 26.5 L 2 29.5 L 0 28.5 L 1.5 25 Z " /><path fill="rgb(0,0,0)" stroke="rgb(0,0,0)" stroke-width="1" opacity="0.7137254901960784" d="M 7.5 28 L 10 28.5 L 7.5 29 L 7.5 28 Z " /><path fill="rgb(0,0,0)" stroke="rgb(0,0,0)" stroke-width="1" opacity="0.7137254901960784" d="M 4.5 29 L 5.5 31 L 3 30.5 L 4.5 29 Z " /><path fill="rgb(0,0,0)" stroke="rgb(0,0,0)" stroke-width="1" opacity="0.4627450980392157" d="M 30.5 11 L 31.5 13 L 30.5 11 Z " /><path fill="rgb(0,0,0)" stroke="rgb(0,0,0)" stroke-width="1" opacity="0.4627450980392157" d="M 33.5 14 L 36 14.5 L 33.5 15 L 33.5 14 Z " /><path fill="rgb(0,0,0)" stroke="rgb(0,0,0)" stroke-width="1" opacity="0.4627450980392157" d="M 21.5 16 L 24 16.5 L 21 18 L 21.5 16 Z " /><path fill="rgb(0,0,0)" stroke="rgb(0,0,0)" stroke-width="1" opacity="0.4627450980392157" d="M 30.5 17 Q 33.8 15.9 33 18.5 L 36 19.5 Q 33.7 23.2 31.5 18 L 30.5 17 Z " /><path fill="rgb(0,0,0)" stroke="rgb(0,0,0)" stroke-width="1" opacity="0.4627450980392157" d="M 21.5 19 L 22.5 21 L 21.5 19 Z " /><path fill="rgb(0,0,0)" stroke="rgb(0,0,0)" stroke-width="1" opacity="0.4627450980392157" d="M 14.5 21 L 15.5 23 L 13.5 24 L 14 22.5 L 14.5 21 Z " /><path fill="rgb(0,0,0)" stroke="rgb(0,0,0)" stroke-width="1" opacity="0.4627450980392157" d="M 0.5 29 L 3 30.5 L 1.5 31 L 0.5 29 Z " /><path fill="rgb(0,0,0)" stroke="rgb(0,0,0)" stroke-width="1" opacity="0.4627450980392157" d="M 5.5 29 L 8 30.5 L 6.5 31 L 5.5 29 Z " /><path fill="rgb(0,0,0)" stroke="rgb(0,0,0)" stroke-width="1" opacity="0.2" d="M 38.5 2 L 37.5 4 L 38.5 2 Z " /><path fill="rgb(0,0,0)" stroke="rgb(0,0,0)" stroke-width="1" opacity="0.2" d="M 29.5 12 L 33 14.5 L 31.5 15 L 29.5 12 Z " /><path fill="rgb(0,0,0)" stroke="rgb(0,0,0)" stroke-width="1" opacity="0.2" d="M 19.5 16 Q 21.8 15.3 21 17.5 L 19.5 16 Z " /><path fill="rgb(0,0,0)" stroke="rgb(0,0,0)" stroke-width="1" opacity="0.2" d="M 23.5 17 L 23 18.5 L 22.5 20 L 22 18.5 L 23.5 17 Z " /><path fill="rgb(0,0,0)" stroke="rgb(0,0,0)" stroke-width="1" opacity="0.2" d="M 29.5 17 L 32 18.5 L 30.5 19 L 29.5 17 Z " /><path fill="rgb(0,0,0)" stroke="rgb(0,0,0)" stroke-width="1" opacity="0.2" d="M 31.5 20 L 34 20.5 L 31.5 21 L 31.5 20 Z " /><path fill="rgb(0,0,0)" stroke="rgb(0,0,0)" stroke-width="1" opacity="0.2" d="M 1.5 22 L 4 22.5 L 1.5 23 L 1.5 22 Z " /><path fill="rgb(0,0,0)" stroke="rgb(0,0,0)" stroke-width="1" opacity="0.2" d="M 11.5 29 L 10.5 31 L 11.5 29 Z " /></svg>