<svg width="41" height="31" version="1.1" xmlns="http://www.w3.org/2000/svg" desc="Created with imagetracer.js version 1.2.6" ><path fill="rgb(0,0,0)" stroke="rgb(0,0,0)" stroke-width="1" opacity="0.9372549019607843" d="M 2.5 25 L 6 26.5 L 4.5 26 Q 1.5 26.5 2.5 25 Z " /><path fill="rgb(0,0,0)" stroke="rgb(0,0,0)" stroke-width="1" opacity="0.9372549019607843" d="M 3 28 L 5 28.5 L 3 29.5 L 3 28 Z " /><path fill="rgb(0,0,0)" stroke="rgb(0,0,0)" stroke-width="1" opacity="0" d="M 0.5 0 L 1 5.5 L 0 5.5 L 0.5 0 Z " /><path fill="rgb(0,0,0)" stroke="rgb(0,0,0)" stroke-width="1" opacity="0" d="M 19 0 L 41 0 L 41 31 L 10 30.5 L 16 25.5 L 20 17.5 L 15 10.5 L 15 5.5 L 16 5.5 L 16.5 8 L 17 3.5 L 19 0 Z M 31 11 L 31 12 L 35 12 L 31 11 Z " /><path fill="rgb(0,0,0)" stroke="rgb(0,0,0)" stroke-width="1" opacity="0.47843137254901963" d="M 17.5 2 L 16.5 6 L 14.5 6 Q 12.3 6.8 13 4.5 L 17.5 2 Z " /><path fill="rgb(0,0,0)" stroke="rgb(0,0,0)" stroke-width="1" opacity="0.47843137254901963" d="M 0.5 7 L 2 9.5 L 0 8.5 L 0.5 7 Z " /><path fill="rgb(0,0,0)" stroke="rgb(0,0,0)" stroke-width="1" opacity="0.47843137254901963" d="M 1.5 26 L 4 26.5 Q 0.5 28 3 29.5 L 2.5 31 L 0 29.5 L 1.5 26 Z " /><path fill="rgb(0,0,0)" stroke="rgb(0,0,0)" stroke-width="1" opacity="0.47843137254901963" d="M 4.5 30 L 7 30.5 L 4.5 31 L 4.5 30 Z " /><path fill="rgb(0,0,0)" stroke="rgb(0,0,0)" stroke-width="1" opacity="1" d="M 2 0 L 15.5 0 L 17 1.5 L 17 3 L 13 3 L 13 5.5 Q 14 12.5 19 15.5 L 19 19.5 L 15 27 L 9.5 30 L 5 30 L 6 26.5 Q 4.6 23.8 0 25 L 1 20.5 L 0 19.5 L 0 13 Q 4 14.4 2 7.5 L 1 5.5 L 1 3.5 L 2 0 Z " /><path fill="rgb(0,0,0)" stroke="rgb(0,0,0)" stroke-width="1" opacity="0.7607843137254902" d="M 15.5 3 L 16.5 5 L 15.5 3 Z " /><path fill="rgb(0,0,0)" stroke="rgb(0,0,0)" stroke-width="1" opacity="0.7607843137254902" d="M 0.5 9 L 2 11.5 L 0 10.5 L 0.5 9 Z " /><path fill="rgb(0,0,0)" stroke="rgb(0,0,0)" stroke-width="1" opacity="0.7607843137254902" d="M 0 25 L 2 25.5 L 0 26.5 L 0 25 Z " /><path fill="rgb(0,0,0)" stroke="rgb(0,0,0)" stroke-width="1" opacity="0.7607843137254902" d="M 4.5 26 L 5 28 L 2.5 29 L 4.5 26 Z " /><path fill="rgb(0,0,0)" stroke="rgb(0,0,0)" stroke-width="1" opacity="0.7607843137254902" d="M 4.5 29 L 3.5 31 L 4.5 29 Z " /></svg>